<mxfile host="app.diagrams.net" modified="2023-10-06T17:30:24.561Z" agent="Mozilla/5.0 (Macintosh; Intel Mac OS X 10_15_7) AppleWebKit/537.36 (KHTML, like Gecko) Chrome/117.0.0.0 Safari/537.36" etag="sbMoJxX2gcr08LSfmaxV" version="21.6.8" type="github">
  <diagram name="Page-1" id="pibRSuqLrPRwSolxSzOp">
    <mxGraphModel dx="987" dy="696" grid="1" gridSize="10" guides="1" tooltips="1" connect="1" arrows="1" fold="1" page="1" pageScale="1" pageWidth="827" pageHeight="1169" math="0" shadow="0">
      <root>
        <mxCell id="0" />
        <mxCell id="1" parent="0" />
        <mxCell id="KCM-B_NKvIWmADJ9laMN-1" value="User 1&lt;br&gt;" style="shape=umlActor;verticalLabelPosition=bottom;verticalAlign=top;html=1;outlineConnect=0;" parent="1" vertex="1">
          <mxGeometry x="440" y="190" width="30" height="60" as="geometry" />
        </mxCell>
        <mxCell id="KCM-B_NKvIWmADJ9laMN-7" value="User 1&lt;br&gt;" style="shape=umlActor;verticalLabelPosition=bottom;verticalAlign=top;html=1;outlineConnect=0;" parent="1" vertex="1">
          <mxGeometry x="70" y="430" width="30" height="60" as="geometry" />
        </mxCell>
        <mxCell id="YjRrUMH3w8Z0Jeo8RrTM-5" style="edgeStyle=orthogonalEdgeStyle;rounded=0;orthogonalLoop=1;jettySize=auto;html=1;" edge="1" parent="1" source="KCM-B_NKvIWmADJ9laMN-8" target="YjRrUMH3w8Z0Jeo8RrTM-3">
          <mxGeometry relative="1" as="geometry" />
        </mxCell>
        <mxCell id="KCM-B_NKvIWmADJ9laMN-8" value="Waku&lt;br&gt;&amp;nbsp;Node&lt;br&gt;" style="whiteSpace=wrap;html=1;aspect=fixed;" parent="1" vertex="1">
          <mxGeometry x="340" y="40" width="80" height="80" as="geometry" />
        </mxCell>
        <mxCell id="KCM-B_NKvIWmADJ9laMN-9" value="Waku&lt;br&gt;&amp;nbsp;Node&lt;br&gt;" style="whiteSpace=wrap;html=1;aspect=fixed;" parent="1" vertex="1">
          <mxGeometry x="470" y="40" width="80" height="80" as="geometry" />
        </mxCell>
        <mxCell id="KCM-B_NKvIWmADJ9laMN-10" value="Frontend" style="whiteSpace=wrap;html=1;aspect=fixed;" parent="1" vertex="1">
          <mxGeometry x="40" y="300" width="80" height="80" as="geometry" />
        </mxCell>
        <mxCell id="YjRrUMH3w8Z0Jeo8RrTM-4" style="edgeStyle=orthogonalEdgeStyle;rounded=0;orthogonalLoop=1;jettySize=auto;html=1;" edge="1" parent="1" source="YjRrUMH3w8Z0Jeo8RrTM-3" target="KCM-B_NKvIWmADJ9laMN-8">
          <mxGeometry relative="1" as="geometry" />
        </mxCell>
        <mxCell id="YjRrUMH3w8Z0Jeo8RrTM-3" value="Backend Service" style="whiteSpace=wrap;html=1;aspect=fixed;" vertex="1" parent="1">
          <mxGeometry x="170" y="40" width="80" height="80" as="geometry" />
        </mxCell>
      </root>
    </mxGraphModel>
  </diagram>
</mxfile>
